<?xml version="1.0" standalone="no"?>
<!DOCTYPE svg PUBLIC "-//W3C//DTD SVG 20010904//EN"
 "http://www.w3.org/TR/2001/REC-SVG-20010904/DTD/svg10.dtd">
<svg version="1.0" xmlns="http://www.w3.org/2000/svg"
 width="500.000000pt" height="500.000000pt" viewBox="0 0 500.000000 500.000000"
 preserveAspectRatio="xMidYMid meet">
<metadata>
Created by potrace 1.14, written by Peter Selinger 2001-2017
</metadata>
<g transform="translate(0.000000,500.000000) scale(0.100000,-0.100000)"
fill="#000000" stroke="none">
<path d="M2101 4913 c-112 -41 -210 -128 -271 -237 -12 -22 -35 -78 -52 -125
-16 -47 -32 -93 -35 -101 -9 -22 -11 -32 -18 -65 -3 -16 -15 -66 -25 -111 -11
-45 -22 -95 -24 -111 -3 -15 -7 -41 -10 -58 -6 -33 -15 -127 -21 -224 -3 -36
-7 -88 -9 -115 -3 -28 -6 -73 -8 -101 -3 -56 -12 -52 102 -41 36 3 94 9 130
12 36 3 76 7 90 9 139 23 1131 23 1251 0 12 -3 58 -7 103 -10 45 -3 90 -7 102
-9 11 -2 54 -7 95 -11 41 -3 81 -8 91 -11 14 -4 16 4 13 73 -3 69 -11 174 -20
268 -2 17 -6 50 -10 75 -4 25 -8 56 -10 70 -2 14 -6 36 -9 50 -3 14 -10 48
-16 75 -16 83 -17 88 -45 171 -51 145 -120 269 -192 342 -139 140 -318 166
-497 75 -75 -39 -174 -62 -211 -51 -16 5 -34 10 -40 12 -23 5 -63 32 -110 73
-111 100 -218 123 -344 76z m556 -452 c7 -9 13 -28 13 -43 0 -27 -30 -116 -56
-166 -8 -15 -14 -30 -14 -35 0 -4 -11 -25 -25 -47 -33 -52 -65 -54 -95 -5 -12
19 -25 35 -29 35 -4 0 -21 -20 -39 -45 -26 -36 -37 -45 -62 -45 -58 0 -89 53
-97 165 -3 39 -7 72 -9 74 -2 2 -16 -2 -30 -9 -21 -12 -24 -19 -20 -49 3 -20
5 -55 6 -78 0 -36 4 -43 34 -61 45 -27 39 -54 -18 -80 -22 -11 -51 -30 -64
-42 l-23 -21 -30 32 -30 32 27 29 c28 29 33 67 18 153 -6 37 -10 41 -27 26
-25 -20 -62 22 -58 67 1 15 111 69 159 78 19 4 44 2 58 -5 19 -8 24 -8 24 3 0
22 22 25 53 7 27 -15 27 -17 25 -98 -2 -49 1 -83 7 -84 5 0 21 33 35 73 14 41
33 86 43 101 16 24 20 26 40 16 36 -20 46 -41 40 -89 -6 -51 -6 -48 -4 -74 2
-33 16 -6 56 107 34 98 39 107 59 101 11 -4 26 -14 33 -23z m203 -6 c29 -15
30 -18 30 -90 0 -41 3 -75 8 -75 4 0 13 -9 20 -21 12 -18 11 -24 -6 -43 -10
-11 -25 -36 -32 -54 -15 -38 -50 -65 -73 -56 -22 8 -33 64 -16 75 9 5 3 7 -16
5 -17 -1 -36 2 -42 7 -9 6 -15 4 -19 -9 -16 -53 -44 -75 -68 -55 -20 17 -20
63 -1 101 9 17 15 33 16 37 0 7 57 131 64 141 1 1 13 5 26 7 13 3 32 14 43 25
24 24 29 24 66 5z m357 -91 c15 -12 28 -27 28 -35 0 -8 8 -13 19 -11 43 8 50
-82 11 -134 -14 -18 -25 -35 -25 -37 0 -9 54 -23 70 -19 8 2 31 25 50 52 44
61 77 80 89 49 20 -54 -33 -154 -108 -206 -22 -16 -43 -36 -46 -45 -7 -20 -47
-33 -70 -24 -15 5 -15 42 0 79 6 14 2 17 -23 17 -16 0 -35 -6 -41 -14 -18 -21
-62 -30 -72 -14 -19 29 -8 69 34 125 24 32 51 70 61 84 l16 26 -47 19 c-66 25
-75 26 -64 6 16 -32 21 -89 10 -121 -19 -54 -141 -101 -187 -72 -8 5 -12 23
-10 47 l3 39 58 6 c74 8 87 20 51 48 -15 11 -32 21 -39 21 -14 0 -52 41 -50
55 4 37 19 67 38 75 12 5 66 9 119 7 80 -2 101 -6 125 -23z m-1221 -140 c45
-21 71 -65 66 -108 -6 -56 -75 -180 -101 -184 -32 -5 -49 13 -86 93 -18 38
-44 81 -59 94 -14 14 -26 30 -26 37 0 6 -7 17 -15 24 -23 19 -18 36 13 48 62
25 151 23 208 -4z"/>
<path d="M1880 4164 c0 -1 14 -26 32 -54 l32 -51 17 33 c27 50 24 66 -13 72
-33 5 -68 5 -68 0z"/>
<path d="M2267 3564 c-2 -2 -75 -6 -162 -9 -88 -3 -178 -8 -200 -10 -22 -3
-65 -7 -95 -10 -52 -4 -96 -10 -165 -19 -16 -2 -55 -7 -85 -11 -30 -4 -58 -9
-61 -11 -3 -1 -28 -6 -55 -9 -27 -4 -74 -13 -104 -21 -30 -8 -64 -17 -74 -19
-86 -20 -159 -56 -185 -94 l-21 -29 21 -27 c20 -24 50 -41 89 -50 127 -29 169
-36 290 -51 176 -21 461 -28 1145 -28 902 1 1081 11 1384 78 28 7 76 33 90 50
37 44 -28 102 -159 141 -47 14 -98 28 -114 31 -16 3 -32 7 -35 9 -4 2 -27 6
-51 9 -25 4 -56 9 -70 12 -14 2 -43 7 -64 9 -22 3 -51 7 -65 10 -35 6 -182 22
-271 30 -176 15 -972 30 -983 19z"/>
<path d="M1360 2929 c-30 -4 -83 -19 -118 -34 l-63 -28 6 -41 c19 -118 24
-133 55 -146 31 -13 37 -24 75 -150 36 -115 86 -249 104 -280 36 -61 109 -105
228 -135 90 -23 113 -25 275 -26 203 -1 297 28 379 119 53 58 132 208 165 315
21 67 41 87 92 94 62 8 104 -13 117 -59 2 -5 4 -10 5 -13 1 -3 3 -8 5 -12 1
-5 7 -21 13 -36 7 -16 12 -30 12 -33 0 -12 48 -107 88 -173 68 -113 134 -163
252 -191 56 -14 307 -16 363 -4 16 3 38 7 50 9 25 4 33 6 97 24 52 15 122 53
149 82 10 11 30 44 44 73 26 53 88 232 94 273 7 43 44 112 63 118 20 6 42 37
47 65 1 8 7 37 12 63 11 59 1 71 -87 106 -60 23 -64 23 -319 17 -242 -5 -299
-8 -380 -21 -18 -3 -50 -8 -70 -11 -21 -3 -69 -11 -108 -19 -97 -19 -125 -24
-165 -31 -19 -3 -48 -9 -65 -14 -16 -6 -43 -12 -60 -14 -16 -3 -41 -7 -55 -11
-48 -11 -126 -6 -230 15 -58 12 -114 23 -125 25 -11 2 -31 6 -45 8 -113 24
-186 37 -230 42 -19 2 -35 4 -35 5 0 9 -157 20 -360 26 -110 3 -204 6 -210 7
-5 2 -35 0 -65 -4z m625 -123 c184 -23 313 -73 349 -135 24 -42 30 -149 12
-218 -30 -113 -100 -224 -162 -254 -65 -33 -108 -40 -259 -43 -125 -2 -203 9
-301 43 -68 25 -83 37 -117 99 -39 71 -60 154 -79 308 -10 82 -10 94 8 130 34
70 94 84 334 79 96 -2 193 -6 215 -9z m1676 -14 c27 -13 51 -33 58 -49 12 -26
17 -145 7 -161 -2 -4 -7 -34 -11 -67 -6 -52 -29 -131 -63 -215 -38 -94 -192
-147 -422 -144 -230 2 -302 37 -371 177 -46 94 -66 166 -63 228 3 66 35 139
66 156 148 75 298 101 573 99 165 -1 184 -3 226 -24z"/>
<path d="M2275 1904 c-76 -18 -74 -17 -112 -33 -18 -7 -33 -17 -33 -21 0 -4
-12 -12 -26 -18 -28 -14 -136 -97 -234 -182 -36 -31 -76 -65 -88 -76 -13 -10
-33 -27 -45 -37 -41 -35 -139 -91 -165 -95 -60 -8 -105 54 -78 106 29 56 77
76 136 57 23 -7 23 -7 6 10 -21 22 -76 27 -119 11 -43 -16 -87 -80 -87 -127 0
-80 52 -135 137 -146 64 -9 218 52 365 144 21 13 42 23 47 23 5 0 11 4 13 8 2
4 39 28 83 51 44 24 83 49 87 55 4 6 8 8 8 4 0 -4 24 2 53 13 62 25 141 21
184 -9 39 -26 80 -42 116 -45 9 -1 17 -4 17 -7 0 -7 71 -4 119 5 34 7 71 24
82 38 3 5 10 9 15 9 5 1 24 8 43 15 32 14 84 14 139 0 29 -7 197 -92 212 -107
3 -3 16 -11 29 -18 13 -8 40 -23 60 -35 133 -77 204 -111 263 -128 82 -23 101
-24 155 -3 57 22 94 91 83 154 -13 72 -90 127 -162 115 -54 -9 -59 -26 -6 -21
39 4 46 1 80 -35 41 -43 44 -68 13 -115 -25 -39 -62 -32 -177 32 -16 8 -28 19
-28 24 0 5 -8 11 -17 14 -10 4 -36 22 -58 42 -139 123 -285 244 -305 252 -8 3
-26 13 -40 23 -47 32 -152 61 -225 62 -72 1 -178 -25 -203 -50 -17 -17 -32
-16 -56 2 -53 40 -191 59 -281 39z"/>
<path d="M3330 1191 c0 -16 10 -42 23 -58 102 -128 237 -354 216 -361 -24 -9
-61 11 -111 60 -62 60 -173 205 -197 258 l-16 35 -3 -44 c-2 -24 4 -61 13 -85
10 -22 18 -48 20 -56 11 -56 151 -370 165 -370 29 0 5 125 -41 212 -20 38 -7
38 24 0 39 -48 103 -92 134 -92 29 0 45 37 42 100 -2 56 -55 157 -148 285
-118 161 -121 165 -121 116z"/>
<path d="M1832 1187 c-30 -9 -122 -97 -122 -117 0 -5 -6 -15 -14 -22 -26 -27
-95 -174 -109 -234 -12 -52 -12 -65 0 -97 8 -20 24 -39 36 -43 54 -17 167 11
167 41 0 19 1 19 -50 -4 -50 -22 -76 -17 -94 18 -23 46 -10 109 48 231 50 103
119 200 143 200 30 0 21 -196 -12 -291 -19 -52 -19 -59 0 -59 31 0 72 127 78
247 7 123 -7 149 -71 130z"/>
<path d="M1983 1050 c-13 -11 -23 -25 -23 -30 0 -9 -18 -51 -76 -175 -12 -27
-35 -81 -49 -120 -56 -148 -60 -175 -25 -175 14 0 22 11 30 43 16 63 49 160
59 176 8 12 16 9 42 -17 18 -18 39 -32 46 -32 8 0 11 -5 7 -11 -8 -13 -73
-196 -79 -222 -2 -10 -7 -27 -10 -38 -4 -13 -2 -19 9 -19 17 0 46 26 47 43 1
22 7 48 15 65 4 9 8 19 9 22 0 3 32 98 69 212 37 114 66 212 64 217 -9 27 -34
-17 -67 -117 l-37 -110 -35 29 c-18 16 -40 29 -46 29 -7 0 -13 2 -13 4 0 8 62
160 77 189 8 16 13 35 11 43 -2 12 -7 11 -25 -6z"/>
<path d="M3151 1033 c-23 -12 -38 -28 -43 -47 -9 -36 -6 -41 20 -27 17 9 21 7
25 -17 3 -15 7 -34 9 -42 13 -47 52 -178 79 -262 26 -83 29 -102 20 -129 -13
-37 -15 -79 -3 -79 4 0 13 9 20 20 7 11 17 20 23 20 21 0 89 81 89 106 0 30
-10 30 -43 0 l-27 -25 -14 32 c-27 61 -126 366 -126 387 0 5 7 10 15 10 8 0
16 7 16 15 1 8 2 23 3 32 1 24 -23 26 -63 6z"/>
<path d="M2192 918 c-5 -7 -22 -47 -36 -88 -15 -41 -37 -97 -50 -125 -64 -136
-126 -279 -121 -283 7 -7 55 27 55 39 0 6 13 39 29 72 15 34 31 72 35 85 l7
22 44 -30 c33 -23 43 -35 40 -53 -2 -12 -6 -53 -10 -92 -3 -38 -8 -77 -10 -85
-8 -33 -15 -110 -10 -110 4 0 15 4 25 10 19 10 26 39 36 142 11 124 14 139 29
154 19 19 19 30 1 37 -10 4 -14 28 -15 94 -2 131 -14 223 -30 223 -5 0 -13 -6
-19 -12z m5 -178 c2 -44 1 -80 -2 -80 -3 0 -15 6 -28 13 -12 6 -23 13 -25 14
-7 3 43 133 51 133 1 0 3 -36 4 -80z"/>
<path d="M2317 912 c-23 -25 -22 -45 2 -37 23 7 33 -16 25 -60 -10 -60 -35
-151 -50 -183 -8 -18 -13 -41 -9 -51 3 -10 0 -51 -5 -92 -17 -114 -23 -226
-12 -233 5 -3 16 2 25 12 10 12 16 47 19 119 3 57 7 106 11 109 3 3 13 2 23
-4 26 -15 46 -4 78 40 55 76 47 201 -22 338 -30 60 -57 74 -85 42z m81 -162
c28 -88 25 -210 -4 -210 -26 0 -54 34 -54 65 0 26 10 92 25 165 2 8 4 19 4 25
2 17 18 -9 29 -45z"/>
<path d="M2959 913 c-2 -22 -2 -13 5 -108 8 -106 18 -314 20 -397 1 -74 9 -90
26 -57 12 22 14 100 5 205 -4 51 -4 52 27 58 65 13 65 13 124 -164 37 -112 38
-114 51 -85 15 37 10 65 -33 178 -19 49 -34 104 -34 123 0 20 -4 33 -9 30 -12
-8 -30 18 -71 97 -37 71 -85 137 -101 137 -5 0 -10 -8 -10 -17z m80 -164 c18
-33 31 -62 29 -64 -2 -2 -16 -5 -32 -7 -27 -3 -30 0 -33 32 -1 19 -5 50 -7 68
-7 48 6 39 43 -29z"/>
<path d="M2813 888 c-37 -41 -89 -182 -98 -268 -6 -52 -6 -201 -1 -229 18 -85
52 -122 101 -113 21 3 85 80 85 100 0 7 5 12 10 12 6 0 10 -19 11 -42 0 -24 2
-59 4 -78 2 -19 5 -88 6 -152 3 -105 5 -118 21 -118 18 0 19 7 21 125 0 37
-13 257 -19 305 -2 19 -6 83 -8 143 -1 59 -6 110 -10 114 -16 16 -26 -27 -26
-110 0 -149 -35 -241 -89 -235 -20 2 -31 14 -49 49 -19 38 -23 65 -25 145 -2
91 7 186 19 206 3 4 7 16 9 25 14 73 55 103 87 63 l18 -22 10 26 c23 61 -34
100 -77 54z"/>
<path d="M2552 843 c-6 -11 -14 -48 -17 -83 -3 -35 -8 -66 -10 -70 -2 -4 -7
-29 -11 -56 -3 -27 -11 -58 -17 -69 -5 -10 -11 -35 -12 -55 -2 -32 -28 -182
-36 -205 -4 -10 3 -15 20 -15 9 0 21 42 47 163 9 42 18 77 21 77 3 0 23 -5 44
-11 35 -11 38 -15 43 -58 12 -100 18 -158 21 -204 4 -58 10 -67 30 -41 16 20
14 110 -5 228 -7 41 -6 63 2 76 10 15 9 23 -3 37 -8 10 -21 43 -28 73 -7 30
-19 75 -26 100 -7 25 -16 56 -19 70 -3 14 -11 34 -19 44 -14 19 -15 19 -25 -1z
m43 -222 c6 -39 5 -43 -10 -38 -9 4 -23 7 -32 7 -15 0 -14 26 4 120 l7 35 12
-40 c6 -23 15 -61 19 -84z"/>
</g>
</svg>
